<mxfile host="app.diagrams.net" agent="Mozilla/5.0 (Windows NT 10.0; Win64; x64) AppleWebKit/537.36 (KHTML, like Gecko) Chrome/131.0.0.0 Safari/537.36" version="25.0.3">
  <diagram name="Page-1" id="NCL2Cy-kkfeRkDx5XkAj">
    <mxGraphModel dx="1434" dy="1872" grid="1" gridSize="10" guides="1" tooltips="1" connect="1" arrows="1" fold="1" page="1" pageScale="1" pageWidth="850" pageHeight="1100" math="0" shadow="0">
      <root>
        <mxCell id="0" />
        <mxCell id="1" parent="0" />
        <mxCell id="rqKjaPlVnbeIOBW1kzw5-2" value="" style="ellipse;html=1;shape=startState;fillColor=#000000;strokeColor=#ff0000;" vertex="1" parent="1">
          <mxGeometry x="120" y="-1020" width="30" height="30" as="geometry" />
        </mxCell>
        <mxCell id="rqKjaPlVnbeIOBW1kzw5-3" value="" style="edgeStyle=orthogonalEdgeStyle;html=1;verticalAlign=bottom;endArrow=open;endSize=8;strokeColor=#ff0000;rounded=0;exitX=1;exitY=0.5;exitDx=0;exitDy=0;entryX=0;entryY=0.5;entryDx=0;entryDy=0;" edge="1" source="rqKjaPlVnbeIOBW1kzw5-2" parent="1" target="rqKjaPlVnbeIOBW1kzw5-4">
          <mxGeometry relative="1" as="geometry">
            <mxPoint x="420" y="-1000" as="targetPoint" />
          </mxGeometry>
        </mxCell>
        <mxCell id="rqKjaPlVnbeIOBW1kzw5-4" value="Apply for Admission" style="rounded=1;whiteSpace=wrap;html=1;arcSize=40;fontColor=#000000;fillColor=#ffffc0;strokeColor=#ff0000;" vertex="1" parent="1">
          <mxGeometry x="210" y="-1030" width="120" height="40" as="geometry" />
        </mxCell>
        <mxCell id="rqKjaPlVnbeIOBW1kzw5-5" value="" style="edgeStyle=orthogonalEdgeStyle;html=1;verticalAlign=bottom;endArrow=open;endSize=8;strokeColor=#ff0000;rounded=0;entryX=0.5;entryY=0;entryDx=0;entryDy=0;exitX=0.5;exitY=1;exitDx=0;exitDy=0;" edge="1" source="rqKjaPlVnbeIOBW1kzw5-4" parent="1" target="rqKjaPlVnbeIOBW1kzw5-6">
          <mxGeometry relative="1" as="geometry">
            <mxPoint x="425" y="-900" as="targetPoint" />
          </mxGeometry>
        </mxCell>
        <mxCell id="rqKjaPlVnbeIOBW1kzw5-6" value="&amp;nbsp;" style="rhombus;whiteSpace=wrap;html=1;fontColor=#000000;fillColor=#ffffc0;strokeColor=#ff0000;" vertex="1" parent="1">
          <mxGeometry x="480" y="-960" width="80" height="40" as="geometry" />
        </mxCell>
        <mxCell id="rqKjaPlVnbeIOBW1kzw5-7" value="[not in merit]" style="edgeStyle=orthogonalEdgeStyle;html=1;align=left;verticalAlign=bottom;endArrow=open;endSize=8;strokeColor=#ff0000;rounded=0;entryX=0;entryY=0.5;entryDx=0;entryDy=0;exitX=1;exitY=0.5;exitDx=0;exitDy=0;" edge="1" source="rqKjaPlVnbeIOBW1kzw5-6" parent="1" target="rqKjaPlVnbeIOBW1kzw5-54">
          <mxGeometry x="-1" y="20" relative="1" as="geometry">
            <mxPoint x="560" y="-880" as="targetPoint" />
            <mxPoint as="offset" />
          </mxGeometry>
        </mxCell>
        <mxCell id="rqKjaPlVnbeIOBW1kzw5-8" value="[in merit]" style="edgeStyle=orthogonalEdgeStyle;html=1;align=left;verticalAlign=top;endArrow=open;endSize=8;strokeColor=#ff0000;rounded=0;exitX=0.5;exitY=1;exitDx=0;exitDy=0;entryX=0.5;entryY=0;entryDx=0;entryDy=0;" edge="1" source="rqKjaPlVnbeIOBW1kzw5-6" parent="1" target="rqKjaPlVnbeIOBW1kzw5-12">
          <mxGeometry x="0.1786" y="-25" relative="1" as="geometry">
            <mxPoint x="420" y="-800" as="targetPoint" />
            <mxPoint as="offset" />
          </mxGeometry>
        </mxCell>
        <mxCell id="rqKjaPlVnbeIOBW1kzw5-11" value="" style="ellipse;html=1;shape=endState;fillColor=#000000;strokeColor=#ff0000;" vertex="1" parent="1">
          <mxGeometry x="810" y="-955" width="30" height="30" as="geometry" />
        </mxCell>
        <mxCell id="rqKjaPlVnbeIOBW1kzw5-12" value="Courses" style="rounded=1;whiteSpace=wrap;html=1;arcSize=40;fontColor=#000000;fillColor=#ffffc0;strokeColor=#ff0000;" vertex="1" parent="1">
          <mxGeometry x="210" y="-890" width="120" height="40" as="geometry" />
        </mxCell>
        <mxCell id="rqKjaPlVnbeIOBW1kzw5-13" value="" style="edgeStyle=orthogonalEdgeStyle;html=1;verticalAlign=bottom;endArrow=open;endSize=8;strokeColor=#ff0000;rounded=0;exitX=0.5;exitY=1;exitDx=0;exitDy=0;entryX=0.5;entryY=0;entryDx=0;entryDy=0;" edge="1" source="rqKjaPlVnbeIOBW1kzw5-12" parent="1" target="rqKjaPlVnbeIOBW1kzw5-17">
          <mxGeometry relative="1" as="geometry">
            <mxPoint x="420" y="-700" as="targetPoint" />
          </mxGeometry>
        </mxCell>
        <mxCell id="rqKjaPlVnbeIOBW1kzw5-17" value="&amp;nbsp;" style="rhombus;whiteSpace=wrap;html=1;fontColor=#000000;fillColor=#ffffc0;strokeColor=#ff0000;" vertex="1" parent="1">
          <mxGeometry x="480" y="-820" width="80" height="40" as="geometry" />
        </mxCell>
        <mxCell id="rqKjaPlVnbeIOBW1kzw5-18" value="[Course ist&#39;n available]" style="edgeStyle=orthogonalEdgeStyle;html=1;align=left;verticalAlign=bottom;endArrow=open;endSize=8;strokeColor=#ff0000;rounded=0;entryX=0.5;entryY=0;entryDx=0;entryDy=0;exitX=0.5;exitY=1;exitDx=0;exitDy=0;" edge="1" source="rqKjaPlVnbeIOBW1kzw5-17" parent="1" target="rqKjaPlVnbeIOBW1kzw5-23">
          <mxGeometry x="-1" y="-63" relative="1" as="geometry">
            <mxPoint x="210" y="-680" as="targetPoint" />
            <mxPoint x="380" y="-680" as="sourcePoint" />
            <Array as="points" />
            <mxPoint x="60" y="43" as="offset" />
          </mxGeometry>
        </mxCell>
        <mxCell id="rqKjaPlVnbeIOBW1kzw5-19" value="[Course available]" style="edgeStyle=orthogonalEdgeStyle;html=1;align=left;verticalAlign=top;endArrow=open;endSize=8;strokeColor=#ff0000;rounded=0;exitX=1;exitY=0.5;exitDx=0;exitDy=0;entryX=0;entryY=0.5;entryDx=0;entryDy=0;" edge="1" source="rqKjaPlVnbeIOBW1kzw5-17" parent="1" target="rqKjaPlVnbeIOBW1kzw5-56">
          <mxGeometry x="-1" y="-200" relative="1" as="geometry">
            <mxPoint x="620" y="-800" as="targetPoint" />
            <mxPoint x="-200" y="-190" as="offset" />
          </mxGeometry>
        </mxCell>
        <mxCell id="rqKjaPlVnbeIOBW1kzw5-22" value="" style="ellipse;html=1;shape=endState;fillColor=#000000;strokeColor=#ff0000;" vertex="1" parent="1">
          <mxGeometry x="810" y="-815" width="30" height="30" as="geometry" />
        </mxCell>
        <mxCell id="rqKjaPlVnbeIOBW1kzw5-23" value="Check Seats" style="rounded=1;whiteSpace=wrap;html=1;arcSize=40;fontColor=#000000;fillColor=#ffffc0;strokeColor=#ff0000;" vertex="1" parent="1">
          <mxGeometry x="220" y="-750" width="120" height="40" as="geometry" />
        </mxCell>
        <mxCell id="rqKjaPlVnbeIOBW1kzw5-24" value="" style="edgeStyle=orthogonalEdgeStyle;html=1;verticalAlign=bottom;endArrow=open;endSize=8;strokeColor=#ff0000;rounded=0;entryX=0.5;entryY=0;entryDx=0;entryDy=0;exitX=0.5;exitY=1;exitDx=0;exitDy=0;" edge="1" source="rqKjaPlVnbeIOBW1kzw5-23" parent="1" target="rqKjaPlVnbeIOBW1kzw5-28">
          <mxGeometry relative="1" as="geometry">
            <mxPoint x="420" y="-500" as="targetPoint" />
            <mxPoint x="420" y="-560" as="sourcePoint" />
          </mxGeometry>
        </mxCell>
        <mxCell id="rqKjaPlVnbeIOBW1kzw5-28" value="&amp;nbsp;" style="rhombus;whiteSpace=wrap;html=1;fontColor=#000000;fillColor=#ffffc0;strokeColor=#ff0000;" vertex="1" parent="1">
          <mxGeometry x="480" y="-680" width="80" height="50" as="geometry" />
        </mxCell>
        <mxCell id="rqKjaPlVnbeIOBW1kzw5-29" value="[Seats aren&#39;t available]" style="edgeStyle=orthogonalEdgeStyle;html=1;align=left;verticalAlign=bottom;endArrow=open;endSize=8;strokeColor=#ff0000;rounded=0;entryX=0;entryY=0.5;entryDx=0;entryDy=0;exitX=1;exitY=0.5;exitDx=0;exitDy=0;" edge="1" source="rqKjaPlVnbeIOBW1kzw5-28" parent="1" target="rqKjaPlVnbeIOBW1kzw5-58">
          <mxGeometry x="-1" y="32" relative="1" as="geometry">
            <mxPoint x="630" y="-480" as="targetPoint" />
            <Array as="points" />
            <mxPoint x="-20" y="7" as="offset" />
          </mxGeometry>
        </mxCell>
        <mxCell id="rqKjaPlVnbeIOBW1kzw5-30" value="[Seats Available]" style="edgeStyle=orthogonalEdgeStyle;html=1;align=left;verticalAlign=top;endArrow=open;endSize=8;strokeColor=#ff0000;rounded=0;entryX=0.5;entryY=0;entryDx=0;entryDy=0;exitX=0.5;exitY=1;exitDx=0;exitDy=0;" edge="1" source="rqKjaPlVnbeIOBW1kzw5-28" parent="1" target="rqKjaPlVnbeIOBW1kzw5-34">
          <mxGeometry x="0.3846" y="-35" relative="1" as="geometry">
            <mxPoint x="420" y="-370" as="targetPoint" />
            <mxPoint as="offset" />
          </mxGeometry>
        </mxCell>
        <mxCell id="rqKjaPlVnbeIOBW1kzw5-32" value="" style="edgeStyle=orthogonalEdgeStyle;html=1;verticalAlign=bottom;endArrow=open;endSize=8;strokeColor=#ff0000;rounded=0;exitX=1;exitY=0.5;exitDx=0;exitDy=0;entryX=0;entryY=0.5;entryDx=0;entryDy=0;" edge="1" source="rqKjaPlVnbeIOBW1kzw5-58" parent="1" target="rqKjaPlVnbeIOBW1kzw5-33">
          <mxGeometry relative="1" as="geometry">
            <mxPoint x="690" y="-400" as="targetPoint" />
            <mxPoint x="690" y="-460" as="sourcePoint" />
          </mxGeometry>
        </mxCell>
        <mxCell id="rqKjaPlVnbeIOBW1kzw5-33" value="" style="ellipse;html=1;shape=endState;fillColor=#000000;strokeColor=#ff0000;" vertex="1" parent="1">
          <mxGeometry x="810" y="-670" width="30" height="30" as="geometry" />
        </mxCell>
        <mxCell id="rqKjaPlVnbeIOBW1kzw5-34" value="Application Form" style="rounded=1;whiteSpace=wrap;html=1;arcSize=40;fontColor=#000000;fillColor=#ffffc0;strokeColor=#ff0000;" vertex="1" parent="1">
          <mxGeometry x="220" y="-610" width="120" height="40" as="geometry" />
        </mxCell>
        <mxCell id="rqKjaPlVnbeIOBW1kzw5-35" value="" style="edgeStyle=orthogonalEdgeStyle;html=1;verticalAlign=bottom;endArrow=open;endSize=8;strokeColor=#ff0000;rounded=0;exitX=0.5;exitY=1;exitDx=0;exitDy=0;entryX=0.5;entryY=0;entryDx=0;entryDy=0;" edge="1" source="rqKjaPlVnbeIOBW1kzw5-34" parent="1" target="rqKjaPlVnbeIOBW1kzw5-36">
          <mxGeometry relative="1" as="geometry">
            <mxPoint x="420" y="-280" as="targetPoint" />
          </mxGeometry>
        </mxCell>
        <mxCell id="rqKjaPlVnbeIOBW1kzw5-36" value="Upload Documents" style="rounded=1;whiteSpace=wrap;html=1;arcSize=40;fontColor=#000000;fillColor=#ffffc0;strokeColor=#ff0000;" vertex="1" parent="1">
          <mxGeometry x="220" y="-520" width="120" height="40" as="geometry" />
        </mxCell>
        <mxCell id="rqKjaPlVnbeIOBW1kzw5-37" value="" style="edgeStyle=orthogonalEdgeStyle;html=1;verticalAlign=bottom;endArrow=open;endSize=8;strokeColor=#ff0000;rounded=0;exitX=0.5;exitY=1;exitDx=0;exitDy=0;" edge="1" source="rqKjaPlVnbeIOBW1kzw5-36" parent="1">
          <mxGeometry relative="1" as="geometry">
            <mxPoint x="710" y="-440" as="targetPoint" />
          </mxGeometry>
        </mxCell>
        <mxCell id="rqKjaPlVnbeIOBW1kzw5-38" value="" style="endArrow=none;startArrow=none;endFill=0;startFill=0;endSize=8;html=1;verticalAlign=bottom;labelBackgroundColor=none;strokeWidth=3;rounded=0;" edge="1" parent="1">
          <mxGeometry width="160" relative="1" as="geometry">
            <mxPoint x="545" y="-440" as="sourcePoint" />
            <mxPoint x="845" y="-440" as="targetPoint" />
          </mxGeometry>
        </mxCell>
        <mxCell id="rqKjaPlVnbeIOBW1kzw5-40" value="" style="edgeStyle=orthogonalEdgeStyle;html=1;verticalAlign=bottom;endArrow=open;endSize=8;strokeColor=#ff0000;rounded=0;entryX=0.5;entryY=0;entryDx=0;entryDy=0;" edge="1" parent="1" target="rqKjaPlVnbeIOBW1kzw5-42">
          <mxGeometry relative="1" as="geometry">
            <mxPoint x="655" y="-370" as="targetPoint" />
            <mxPoint x="650" y="-440" as="sourcePoint" />
          </mxGeometry>
        </mxCell>
        <mxCell id="rqKjaPlVnbeIOBW1kzw5-41" value="" style="edgeStyle=orthogonalEdgeStyle;html=1;verticalAlign=bottom;endArrow=open;endSize=8;strokeColor=#ff0000;rounded=0;entryX=0.5;entryY=0;entryDx=0;entryDy=0;" edge="1" parent="1" target="rqKjaPlVnbeIOBW1kzw5-46">
          <mxGeometry relative="1" as="geometry">
            <mxPoint x="775" y="-370" as="targetPoint" />
            <mxPoint x="785" y="-440" as="sourcePoint" />
            <Array as="points" />
          </mxGeometry>
        </mxCell>
        <mxCell id="rqKjaPlVnbeIOBW1kzw5-42" value="Fee Payment" style="rounded=1;whiteSpace=wrap;html=1;arcSize=40;fontColor=#000000;fillColor=#ffffc0;strokeColor=#ff0000;" vertex="1" parent="1">
          <mxGeometry x="590" y="-370" width="120" height="40" as="geometry" />
        </mxCell>
        <mxCell id="rqKjaPlVnbeIOBW1kzw5-43" value="" style="edgeStyle=orthogonalEdgeStyle;html=1;verticalAlign=bottom;endArrow=open;endSize=8;strokeColor=#ff0000;rounded=0;exitX=0.5;exitY=1;exitDx=0;exitDy=0;" edge="1" source="rqKjaPlVnbeIOBW1kzw5-42" parent="1">
          <mxGeometry relative="1" as="geometry">
            <mxPoint x="650" y="-270" as="targetPoint" />
          </mxGeometry>
        </mxCell>
        <mxCell id="rqKjaPlVnbeIOBW1kzw5-46" value="Download Fee Reciept" style="rounded=1;whiteSpace=wrap;html=1;arcSize=40;fontColor=#000000;fillColor=#ffffc0;strokeColor=#ff0000;" vertex="1" parent="1">
          <mxGeometry x="725" y="-370" width="120" height="40" as="geometry" />
        </mxCell>
        <mxCell id="rqKjaPlVnbeIOBW1kzw5-47" value="" style="edgeStyle=orthogonalEdgeStyle;html=1;verticalAlign=bottom;endArrow=open;endSize=8;strokeColor=#ff0000;rounded=0;exitX=0.5;exitY=1;exitDx=0;exitDy=0;" edge="1" source="rqKjaPlVnbeIOBW1kzw5-46" parent="1">
          <mxGeometry relative="1" as="geometry">
            <mxPoint x="785" y="-270" as="targetPoint" />
          </mxGeometry>
        </mxCell>
        <mxCell id="rqKjaPlVnbeIOBW1kzw5-48" value="" style="endArrow=none;startArrow=none;endFill=0;startFill=0;endSize=8;html=1;verticalAlign=bottom;labelBackgroundColor=none;strokeWidth=3;rounded=0;" edge="1" parent="1">
          <mxGeometry width="160" relative="1" as="geometry">
            <mxPoint x="545" y="-270" as="sourcePoint" />
            <mxPoint x="855" y="-270" as="targetPoint" />
          </mxGeometry>
        </mxCell>
        <mxCell id="rqKjaPlVnbeIOBW1kzw5-49" value="Update Status" style="rounded=1;whiteSpace=wrap;html=1;arcSize=40;fontColor=#000000;fillColor=#ffffc0;strokeColor=#ff0000;" vertex="1" parent="1">
          <mxGeometry x="655" y="-210" width="120" height="40" as="geometry" />
        </mxCell>
        <mxCell id="rqKjaPlVnbeIOBW1kzw5-50" value="" style="edgeStyle=orthogonalEdgeStyle;html=1;verticalAlign=bottom;endArrow=open;endSize=8;strokeColor=#ff0000;rounded=0;entryX=0.5;entryY=0;entryDx=0;entryDy=0;exitX=0.5;exitY=1;exitDx=0;exitDy=0;" edge="1" source="rqKjaPlVnbeIOBW1kzw5-49" parent="1" target="rqKjaPlVnbeIOBW1kzw5-52">
          <mxGeometry relative="1" as="geometry">
            <mxPoint x="715" y="-110" as="targetPoint" />
          </mxGeometry>
        </mxCell>
        <mxCell id="rqKjaPlVnbeIOBW1kzw5-51" value="" style="edgeStyle=orthogonalEdgeStyle;html=1;verticalAlign=bottom;endArrow=open;endSize=8;strokeColor=#ff0000;rounded=0;entryX=0.5;entryY=0;entryDx=0;entryDy=0;" edge="1" parent="1" target="rqKjaPlVnbeIOBW1kzw5-49">
          <mxGeometry relative="1" as="geometry">
            <mxPoint x="725" y="-100" as="targetPoint" />
            <mxPoint x="715" y="-270" as="sourcePoint" />
          </mxGeometry>
        </mxCell>
        <mxCell id="rqKjaPlVnbeIOBW1kzw5-52" value="" style="ellipse;html=1;shape=endState;fillColor=#000000;strokeColor=#ff0000;" vertex="1" parent="1">
          <mxGeometry x="700" y="-110" width="30" height="30" as="geometry" />
        </mxCell>
        <mxCell id="rqKjaPlVnbeIOBW1kzw5-54" value="Alert&quot;Apply for another college&quot;" style="whiteSpace=wrap;html=1;fillColor=#ffffc0;strokeColor=#ff0000;fontColor=#000000;rounded=1;arcSize=40;" vertex="1" parent="1">
          <mxGeometry x="640" y="-970" width="120" height="60" as="geometry" />
        </mxCell>
        <mxCell id="rqKjaPlVnbeIOBW1kzw5-56" value="Alert&quot;This course isn&#39;t available&quot;" style="whiteSpace=wrap;html=1;fillColor=#ffffc0;strokeColor=#ff0000;fontColor=#000000;rounded=1;arcSize=40;" vertex="1" parent="1">
          <mxGeometry x="640" y="-830" width="120" height="60" as="geometry" />
        </mxCell>
        <mxCell id="rqKjaPlVnbeIOBW1kzw5-58" value="Alert&quot;Seats aren&#39;t available&quot;" style="whiteSpace=wrap;html=1;fillColor=#ffffc0;strokeColor=#ff0000;fontColor=#000000;rounded=1;arcSize=40;" vertex="1" parent="1">
          <mxGeometry x="640" y="-685" width="120" height="60" as="geometry" />
        </mxCell>
        <mxCell id="rqKjaPlVnbeIOBW1kzw5-60" value="" style="edgeStyle=orthogonalEdgeStyle;html=1;verticalAlign=bottom;endArrow=open;endSize=8;strokeColor=#ff0000;rounded=0;exitX=1;exitY=0.5;exitDx=0;exitDy=0;entryX=0;entryY=0.5;entryDx=0;entryDy=0;" edge="1" parent="1" source="rqKjaPlVnbeIOBW1kzw5-54" target="rqKjaPlVnbeIOBW1kzw5-11">
          <mxGeometry relative="1" as="geometry">
            <mxPoint x="430" y="-990" as="targetPoint" />
            <mxPoint x="430" y="-1030" as="sourcePoint" />
          </mxGeometry>
        </mxCell>
        <mxCell id="rqKjaPlVnbeIOBW1kzw5-119" value="" style="edgeStyle=orthogonalEdgeStyle;html=1;verticalAlign=bottom;endArrow=open;endSize=8;strokeColor=#ff0000;rounded=0;exitX=1;exitY=0.5;exitDx=0;exitDy=0;entryX=0;entryY=0.5;entryDx=0;entryDy=0;" edge="1" parent="1" source="rqKjaPlVnbeIOBW1kzw5-56" target="rqKjaPlVnbeIOBW1kzw5-22">
          <mxGeometry relative="1" as="geometry">
            <mxPoint x="820" y="-930" as="targetPoint" />
            <mxPoint x="770" y="-930" as="sourcePoint" />
          </mxGeometry>
        </mxCell>
        <mxCell id="rqKjaPlVnbeIOBW1kzw5-120" value="" style="rounded=0;whiteSpace=wrap;html=1;fillColor=none;" vertex="1" parent="1">
          <mxGeometry x="20" y="-1080" width="920" height="1060" as="geometry" />
        </mxCell>
        <mxCell id="rqKjaPlVnbeIOBW1kzw5-121" value="" style="endArrow=none;html=1;rounded=0;entryX=0.447;entryY=0.003;entryDx=0;entryDy=0;entryPerimeter=0;exitX=0.451;exitY=1.005;exitDx=0;exitDy=0;exitPerimeter=0;" edge="1" parent="1" source="rqKjaPlVnbeIOBW1kzw5-120" target="rqKjaPlVnbeIOBW1kzw5-120">
          <mxGeometry width="50" height="50" relative="1" as="geometry">
            <mxPoint x="420" y="-830" as="sourcePoint" />
            <mxPoint x="470" y="-880" as="targetPoint" />
          </mxGeometry>
        </mxCell>
        <mxCell id="rqKjaPlVnbeIOBW1kzw5-122" value="fdhbf" style="rounded=0;whiteSpace=wrap;html=1;fillColor=none;" vertex="1" parent="1">
          <mxGeometry x="20" y="-1080" width="410" height="40" as="geometry" />
        </mxCell>
        <mxCell id="rqKjaPlVnbeIOBW1kzw5-123" value="" style="rounded=0;whiteSpace=wrap;html=1;fillColor=none;" vertex="1" parent="1">
          <mxGeometry x="430" y="-1080" width="510" height="40" as="geometry" />
        </mxCell>
      </root>
    </mxGraphModel>
  </diagram>
</mxfile>
